<svg id="my-svg" width="100%" xmlns="http://www.w3.org/2000/svg" xmlns:xlink="http://www.w3.org/1999/xlink" viewBox="0 0 800 450" style="max-width: 800px; background-color: white;" role="graphics-document document" aria-roledescription="venn"><style>#my-svg{font-size:16px;fill:#333E48;}@keyframes edge-animation-frame{from{stroke-dashoffset:0;}}@keyframes dash{to{stroke-dashoffset:0;}}#my-svg .edge-animation-slow{stroke-dasharray:9,5!important;stroke-dashoffset:900;animation:dash 50s linear infinite;stroke-linecap:round;}#my-svg .edge-animation-fast{stroke-dasharray:9,5!important;stroke-dashoffset:900;animation:dash 20s linear infinite;stroke-linecap:round;}#my-svg .error-icon{fill:#f9ccff;}#my-svg .error-text{fill:#063300;stroke:#063300;}#my-svg .edge-thickness-normal{stroke-width:1px;}#my-svg .edge-thickness-thick{stroke-width:3.5px;}#my-svg .edge-pattern-solid{stroke-dasharray:0;}#my-svg .edge-thickness-invisible{stroke-width:0;fill:none;}#my-svg .edge-pattern-dashed{stroke-dasharray:3;}#my-svg .edge-pattern-dotted{stroke-dasharray:2;}#my-svg .marker{fill:#45842a;stroke:#45842a;}#my-svg .marker.cross{stroke:#45842a;}#my-svg svg{font-size:16px;}#my-svg p{margin:0;}#my-svg .venn-title{font-size:32px;fill:#063300;}#my-svg .venn-circle text{font-size:48px;}#my-svg .venn-intersection text{font-size:48px;fill:#333E48;}#my-svg .venn-text-node{color:#333E48;}#my-svg .node .neo-node{stroke:#007298;}#my-svg [data-look="neo"].node rect,#my-svg [data-look="neo"].cluster rect,#my-svg [data-look="neo"].node polygon{stroke:url(#my-svg-gradient);filter:drop-shadow( 1px 2px 2px rgba(185,185,185,1));}#my-svg [data-look="neo"].node path{stroke:url(#my-svg-gradient);stroke-width:1px;}#my-svg [data-look="neo"].node .outer-path{filter:drop-shadow( 1px 2px 2px rgba(185,185,185,1));}#my-svg [data-look="neo"].node .neo-line path{stroke:#007298;filter:none;}#my-svg [data-look="neo"].node circle{stroke:url(#my-svg-gradient);filter:drop-shadow( 1px 2px 2px rgba(185,185,185,1));}#my-svg [data-look="neo"].node circle .state-start{fill:#000000;}#my-svg [data-look="neo"].icon-shape .icon{fill:url(#my-svg-gradient);filter:drop-shadow( 1px 2px 2px rgba(185,185,185,1));}#my-svg [data-look="neo"].icon-shape .icon-neo path{stroke:url(#my-svg-gradient);filter:drop-shadow( 1px 2px 2px rgba(185,185,185,1));}#my-svg :root{--mermaid-font-family:"trebuchet ms",verdana,arial,sans-serif;}</style><g/><text class="venn-title" font-size="16px" text-anchor="middle" dominant-baseline="middle" x="50%" y="16" style="fill: rgb(6, 51, 0);">"Linear SDLC Overlaps"</text><g transform="translate(0, 24)"><g class="venn-area venn-circle venn-set-0" data-venn-sets="Discover"><path d="M 151.47097342613893 213.0513066003568 &#10;m -136.47097342613893 0 &#10;a 136.47097342613893 136.47097342613893 0 1 0 272.94194685227785 0 &#10;a 136.47097342613893 136.47097342613893 0 1 0 -272.94194685227785 0" style="fill-opacity: 0.66; fill: rgb(205, 243, 255); stroke: rgb(0, 114, 152); stroke-width: 2.5; stroke-opacity: 0.95;"/><text class="label" text-anchor="middle" dy=".35em" x="76" y="213" style="fill: rgb(51, 62, 72); font-size: 24px;"><tspan x="76" y="213" dy="0.35em">Discover</tspan></text></g><g class="venn-area venn-circle venn-set-1" data-venn-sets="Design"><path d="M 274.3292965534593 213.05130660035684 &#10;m -136.47097342613893 0 &#10;a 136.47097342613893 136.47097342613893 0 1 0 272.94194685227785 0 &#10;a 136.47097342613893 136.47097342613893 0 1 0 -272.94194685227785 0" style="fill-opacity: 0.66; fill: rgb(219, 255, 204); stroke: rgb(69, 132, 42); stroke-width: 2.5; stroke-opacity: 0.95;"/><text class="label" text-anchor="middle" dy=".35em" x="275" y="321" style="fill: rgb(51, 62, 72); font-size: 24px;"><tspan x="275" y="321" dy="0.35em">Design</tspan></text></g><g class="venn-area venn-circle venn-set-2" data-venn-sets="Build"><path d="M 400.00049293635783 212.91767087555525 &#10;m -136.47097342613893 0 &#10;a 136.47097342613893 136.47097342613893 0 1 0 272.94194685227785 0 &#10;a 136.47097342613893 136.47097342613893 0 1 0 -272.94194685227785 0" style="fill-opacity: 0.7; fill: rgb(255, 244, 204); stroke: rgb(153, 74, 0); stroke-width: 2.5; stroke-opacity: 0.95;"/><text class="label" text-anchor="middle" dy=".35em" x="400" y="105" style="fill: rgb(51, 62, 72); font-size: 24px;"><tspan x="400" y="105" dy="0.35em">Build</tspan></text></g><g class="venn-area venn-circle venn-set-3" data-venn-sets="Verify"><path d="M 525.6708030915411 213.08199734551278 &#10;m -136.47097342613893 0 &#10;a 136.47097342613893 136.47097342613893 0 1 0 272.94194685227785 0 &#10;a 136.47097342613893 136.47097342613893 0 1 0 -272.94194685227785 0" style="fill-opacity: 0.66; fill: rgb(255, 216, 232); stroke: rgb(176, 37, 100); stroke-width: 2.5; stroke-opacity: 0.95;"/><text class="label" text-anchor="middle" dy=".35em" x="524" y="104" style="fill: rgb(51, 62, 72); font-size: 24px;"><tspan x="524" y="104" dy="0.35em">Verify</tspan></text></g><g class="venn-area venn-circle venn-set-4" data-venn-sets="Operate"><path d="M 648.5290265738611 213.08232912444475 &#10;m -136.47097342613893 0 &#10;a 136.47097342613893 136.47097342613893 0 1 0 272.94194685227785 0 &#10;a 136.47097342613893 136.47097342613893 0 1 0 -272.94194685227785 0" style="fill-opacity: 0.66; fill: rgb(230, 220, 255); stroke: rgb(102, 72, 168); stroke-width: 2.5; stroke-opacity: 0.95;"/><text class="label" text-anchor="middle" dy=".35em" x="723" y="213" style="fill: rgb(51, 62, 72); font-size: 24px;"><tspan x="723" y="213" dy="0.35em">Operate</tspan></text></g><g class="venn-area venn-intersection" data-venn-sets="Design_Discover"><path d="M 212.90013498979908 334.9151022800568 &#10;A 136.47097342613893 136.47097342613893 0 0 1 212.90013498979914 91.1875109206569 &#10;A 136.47097342613893 136.47097342613893 0 0 1 212.90013498979908 334.9151022800568" style="fill-opacity: 0; fill: transparent;"/><text class="label" text-anchor="middle" dy=".35em" x="200" y="213" style="fill: rgb(51, 62, 72); font-size: 24px;"><tspan x="200" y="213" dy="0.35em">Scope</tspan></text></g><g class="venn-area venn-intersection" data-venn-sets="Build_Design"><path d="M 337.0360725858099 91.83997533340583 &#10;A 136.47097342613893 136.47097342613893 0 0 1 337.2937169040072 334.12900214250624 &#10;A 136.47097342613893 136.47097342613893 0 0 1 337.0360725858099 91.83997533340583" style="fill-opacity: 0; fill: transparent;"/><text class="label" text-anchor="middle" dy=".35em" x="338" y="260" style="fill: rgb(51, 62, 72); font-size: 24px;"><tspan x="338" y="260" dy="0.35em">Blueprint</tspan></text></g><g class="venn-area venn-intersection" data-venn-sets="Build_Verify"><path d="M 462.677239232499 334.14453283942476 &#10;A 136.47097342613893 136.47097342613893 0 0 1 462.99405679539996 91.85513538164325 &#10;A 136.47097342613893 136.47097342613893 0 0 1 462.677239232499 334.14453283942476" style="fill-opacity: 0; fill: transparent;"/><text class="label" text-anchor="middle" dy=".35em" x="461" y="260" style="fill: rgb(51, 62, 72); font-size: 24px;"><tspan x="461" y="260" dy="0.35em">Test Loop</tspan></text></g><g class="venn-area venn-intersection" data-venn-sets="Operate_Verify"><path d="M 587.0995857391559 334.9459840286588 &#10;A 136.47097342613893 136.47097342613893 0 0 1 587.1002439262462 91.21834244129869 &#10;A 136.47097342613893 136.47097342613893 0 0 1 587.0995857391559 334.9459840286588" style="fill-opacity: 0; fill: transparent;"/><text class="label" text-anchor="middle" dy=".35em" x="599" y="213" style="fill: rgb(51, 62, 72); font-size: 24px;"><tspan x="599" y="213" dy="0.35em">Release</tspan></text></g></g></svg>
