<svg xmlns="http://www.w3.org/2000/svg" xmlns:xlink="http://www.w3.org/1999/xlink" contentStyleType="text/css" data-diagram-type="CLASS" height="225px" preserveAspectRatio="none" style="width:266px;height:225px;background:#FFFFFF;" version="1.1" viewBox="0 0 266 225" width="266px" zoomAndPan="magnify"><?plantuml 1.2026.6?><defs/><g><g class="title" data-source-line="153"><rect fill="none" height="28.0986" rx="3" ry="3" style="stroke:#696969;stroke-width:1;" width="55.5654" x="102.0298" y="5"/><text fill="#333E48" font-family="Arial" font-size="14" font-weight="700" lengthAdjust="spacing" textLength="43.5654" x="108.0298" y="24.1318">Object</text></g><g class="entity" data-qualified-name="checkout" data-source-line="154" id="ent0001"><rect fill="#FFFFFF" height="52.1973" rx="3" ry="3" style="stroke:#696969;stroke-width:0.5;" width="184.1973" x="19.5" y="46.0986"/><path d="M22.5,46.0986 L200.6973,46.0986 A3,3 0 0 1 203.6973,49.0986 L203.6973,74.1973 L19.5,74.1973 L19.5,49.0986 A3,3 0 0 1 22.5,46.0986" fill="#E7E7E7" style="stroke:#696969;stroke-width:0.5;"/><text fill="#333E48" font-family="Arial" font-size="14" lengthAdjust="spacing" textLength="56.0342" x="83.5815" y="65.2305">checkout</text><line style="stroke:#696969;stroke-width:0.5;" x1="20.5" x2="202.6973" y1="74.1973" y2="74.1973"/><text fill="#333E48" font-family="Arial" font-size="14" lengthAdjust="spacing" textLength="172.1973" x="25.5" y="91.3291">state = "collecting payment"</text></g><g class="entity" data-qualified-name="cart" data-source-line="157" id="ent0002"><rect fill="#FFFFFF" height="52.1973" rx="3" ry="3" style="stroke:#696969;stroke-width:0.5;" width="69.1895" x="7" y="158.0986"/><path d="M10,158.0986 L73.1895,158.0986 A3,3 0 0 1 76.1895,161.0986 L76.1895,186.1973 L7,186.1973 L7,161.0986 A3,3 0 0 1 10,158.0986" fill="#E7E7E7" style="stroke:#696969;stroke-width:0.5;"/><text fill="#333E48" font-family="Arial" font-size="14" lengthAdjust="spacing" textLength="23.3379" x="29.9258" y="177.2305">cart</text><line style="stroke:#696969;stroke-width:0.5;" x1="8" x2="75.1895" y1="186.1973" y2="186.1973"/><text fill="#333E48" font-family="Arial" font-size="14" lengthAdjust="spacing" textLength="57.1895" x="13" y="203.3291">items = 3</text></g><g class="entity" data-qualified-name="payment" data-source-line="160" id="ent0003"><rect fill="#FFFFFF" height="52.1973" rx="3" ry="3" style="stroke:#696969;stroke-width:0.5;" width="140.625" x="111" y="158.0986"/><path d="M114,158.0986 L248.625,158.0986 A3,3 0 0 1 251.625,161.0986 L251.625,186.1973 L111,186.1973 L111,161.0986 A3,3 0 0 1 114,158.0986" fill="#E7E7E7" style="stroke:#696969;stroke-width:0.5;"/><text fill="#333E48" font-family="Arial" font-size="14" lengthAdjust="spacing" textLength="53.6963" x="154.4644" y="177.2305">payment</text><line style="stroke:#696969;stroke-width:0.5;" x1="112" x2="250.625" y1="186.1973" y2="186.1973"/><text fill="#333E48" font-family="Arial" font-size="14" lengthAdjust="spacing" textLength="128.625" x="117" y="203.3291">status = "authorized"</text></g><!--link checkout to cart--><g class="link" data-entity-1="ent0001" data-entity-2="ent0002" data-link-type="dependency" data-source-line="163" id="lnk4"><path codeLine="163" d="M95.44,98.3386 C84.06,116.2186 71.5351,135.9008 60.1651,153.7608" fill="none" id="checkout-to-cart" style="stroke:#696969;stroke-width:1;"/><polygon fill="#696969" points="57.48,157.9786,65.6875,152.5347,60.1651,153.7608,58.939,148.2384,57.48,157.9786" style="stroke:#696969;stroke-width:1;stroke-linejoin:miter;stroke-miterlimit:10;"/></g><!--link checkout to payment--><g class="link" data-entity-1="ent0001" data-entity-2="ent0003" data-link-type="dependency" data-source-line="164" id="lnk5"><path codeLine="164" d="M127.56,98.3386 C138.94,116.2186 151.4649,135.9008 162.8349,153.7608" fill="none" id="checkout-to-payment" style="stroke:#696969;stroke-width:1;"/><polygon fill="#696969" points="165.52,157.9786,164.061,148.2384,162.8349,153.7608,157.3125,152.5347,165.52,157.9786" style="stroke:#696969;stroke-width:1;stroke-linejoin:miter;stroke-miterlimit:10;"/></g><?plantuml-src hLVTRjem5BxFKrZiOZUWCVwPkagbtTP9NTUjsmCOvmGy79iwpZfMyUwp4nCIR1AcbWY1y7U-yt-EUOtM37ELngn311Co0TMHm4EG8DyXalGGIHCbOgIM44EGh2XVOubZDCTajP0YvU6baKEleknLGYHB78f7oXSemYmforv1X5EcFWgkRd4Cw49IpFpdbhpVxyDWKe9SI2aUxU5eQfxIuKn8xS2nq--vqPA3HAEWTF23AWPrIc-5WjcXtp0spo6gRC6KcES0uUef0UxX8GLEu0vBHGbTwmpDt7WJ4WuRX2fcmDjvl-SHk21AI8UVX56_aiyglCpSxOvxqua7UaCZ_UPGdv22sCrf2VKp0O8JQBPp1worqE-p4rFNLnl54kQIuIIPDRP33gjDI0Qv1gmXpQPzdVy2efhrMfmd6bK_wM-gDirq1R8fl1dgNkbYjA31S3BeOG_emxwN9jsk5t95SInuw34FXeJK29IjXF6urnrKKYVYjU30JmZZ7bhh-6UkG4QOk7KQpaqAlT0oenEbMn6UD7J2AeyplAwmmlEJ6gX0rdfwoKJgISYKa8EoDx1A_mzxqQWSY6yffD2SsXnMdr1TRmgQavd3waUOWTIMRuPmQhUoJsAz_PgjoN5rYoT7c4bwT3pUm0Ay3NAWpEBAlfF8F45mbgWDW_D02g7GKu3G7Gv3ixz7-hjh7aAkGGWTim2XwyqQf1PPLKE-3O3fgmNFLVwFcayUDTjWcStFesIEe6sbYXgxiRS1rstLHcQXwaPLRHG9fidrfmwbFf1wicA-OFehmJ8ynGFhjSSGsuVRWEn6JHlHtOnu7dKHdD2sTXlfIvt42sEuO4oxGGLFNif-q_8dPJEV13w3yp6o3HvCqv_2PMU1r_bia6m3xQw9AJOxlOtM-slIAVnsMNlviyri_DRh-xbSkqJb--kbF3Stg__eB-tBKeT7Bz65cHbFDQRwAV4VcaV2txr-eQr-BoGDNS6YHmraZgMBAChoU67cqapBkE95HWma8LWfs2dvWkNgSEDOgcoKMfZFeRgeRNMGpzxOYQlCFmzxKmj4ze784iXAf7bn9cRNeFUejUjMFPNNU6F6PaiJxKHqpZ8uLH0d6jxVdrbqmPQQynPErL98-XV2LfPqgxBJES_8ghzOYdy0?></g></svg>