<svg xmlns="http://www.w3.org/2000/svg" width="256" height="256" viewBox="0 0 256 256" preserveAspectRatio="xMidYMid meet" role="img" data-logo-id="devicon-yaml" data-logo-variant="mono-black" data-color-mode="black" data-vector-only="true" data-recolorable="false" data-source-sha256="5b6096eafb1eb1462f3abdb1b349f9c5f28747cc0196f021ddb5f4813f7e0891" data-license="MIT"><title>yaml — mono-black</title><metadata data-logo-id="devicon-yaml" data-logo-variant="mono-black" data-color-mode="black" data-vector-only="true" data-recolorable="false" data-source-sha256="5b6096eafb1eb1462f3abdb1b349f9c5f28747cc0196f021ddb5f4813f7e0891" data-license="MIT" data-provider="Devicon" /><svg viewBox="0 0 128 128" x="16" y="16" width="224" height="224" preserveAspectRatio="xMidYMid meet" fill="#000000">
<path d="m0.5 5.6289 21.754 34.15v21.646h13.959v-21.646l22.775-34.15h-15.02l-13.947 21.988-13.832-21.988h-15.689zm63.994 0.13086-23.66 55.797h11.189l5.1387-12.408h25.266l4.252 12.408h11.957l-22.699-55.797h-11.443zm5.9922 11.773 7.7441 20.475h-16.387l8.6426-20.475zm16.195 50.139v54.451h40.818v-11.635-0.00195h-28.863v-42.814h-11.955zm-64.428 0.011719v54.687h11.734v-37.723l12.279 25.355h9.2344l12.699-26.246v38.602h11.256v-54.676h-15.369l-13.637 24.732-12.986-24.732h-15.211z" />
</svg></svg>
