<svg id="my-svg" width="100%" xmlns="http://www.w3.org/2000/svg" xmlns:xlink="http://www.w3.org/1999/xlink" viewBox="0 0 800 450" style="max-width: 800px; background-color: white;" role="graphics-document document" aria-roledescription="venn"><style>#my-svg{font-size:16px;fill:#333E48;}@keyframes edge-animation-frame{from{stroke-dashoffset:0;}}@keyframes dash{to{stroke-dashoffset:0;}}#my-svg .edge-animation-slow{stroke-dasharray:9,5!important;stroke-dashoffset:900;animation:dash 50s linear infinite;stroke-linecap:round;}#my-svg .edge-animation-fast{stroke-dasharray:9,5!important;stroke-dashoffset:900;animation:dash 20s linear infinite;stroke-linecap:round;}#my-svg .error-icon{fill:#f9ccff;}#my-svg .error-text{fill:#063300;stroke:#063300;}#my-svg .edge-thickness-normal{stroke-width:1px;}#my-svg .edge-thickness-thick{stroke-width:3.5px;}#my-svg .edge-pattern-solid{stroke-dasharray:0;}#my-svg .edge-thickness-invisible{stroke-width:0;fill:none;}#my-svg .edge-pattern-dashed{stroke-dasharray:3;}#my-svg .edge-pattern-dotted{stroke-dasharray:2;}#my-svg .marker{fill:#45842a;stroke:#45842a;}#my-svg .marker.cross{stroke:#45842a;}#my-svg svg{font-size:16px;}#my-svg p{margin:0;}#my-svg .venn-title{font-size:32px;fill:#063300;}#my-svg .venn-circle text{font-size:48px;}#my-svg .venn-intersection text{font-size:48px;fill:#333E48;}#my-svg .venn-text-node{color:#333E48;}#my-svg .node .neo-node{stroke:#007298;}#my-svg [data-look="neo"].node rect,#my-svg [data-look="neo"].cluster rect,#my-svg [data-look="neo"].node polygon{stroke:url(#my-svg-gradient);filter:drop-shadow( 1px 2px 2px rgba(185,185,185,1));}#my-svg [data-look="neo"].node path{stroke:url(#my-svg-gradient);stroke-width:1px;}#my-svg [data-look="neo"].node .outer-path{filter:drop-shadow( 1px 2px 2px rgba(185,185,185,1));}#my-svg [data-look="neo"].node .neo-line path{stroke:#007298;filter:none;}#my-svg [data-look="neo"].node circle{stroke:url(#my-svg-gradient);filter:drop-shadow( 1px 2px 2px rgba(185,185,185,1));}#my-svg [data-look="neo"].node circle .state-start{fill:#000000;}#my-svg [data-look="neo"].icon-shape .icon{fill:url(#my-svg-gradient);filter:drop-shadow( 1px 2px 2px rgba(185,185,185,1));}#my-svg [data-look="neo"].icon-shape .icon-neo path{stroke:url(#my-svg-gradient);filter:drop-shadow( 1px 2px 2px rgba(185,185,185,1));}#my-svg :root{--mermaid-font-family:"trebuchet ms",verdana,arial,sans-serif;}</style><g/><text class="venn-title" font-size="16px" text-anchor="middle" dominant-baseline="middle" x="50%" y="16" style="fill: rgb(6, 51, 0);">"Coverage"</text><g transform="translate(0, 24)"><g class="venn-area venn-circle venn-set-0" data-venn-sets="Source"><path d="M 369.9921742526168 245.72891662007623 &#10;m -165.27108337992374 0 &#10;a 165.27108337992374 165.27108337992374 0 1 0 330.5421667598475 0 &#10;a 165.27108337992374 165.27108337992374 0 1 0 -330.5421667598475 0" style="fill-opacity: 0.7; fill: rgb(205, 243, 255); stroke: rgb(0, 114, 152); stroke-width: 2.5; stroke-opacity: 0.95;"/><text class="label" text-anchor="middle" dy=".35em" x="234" y="246" style="fill: rgb(51, 62, 72); font-size: 24px;"><tspan x="234" y="246" dy="0.35em">MMD</tspan></text></g><g class="venn-area venn-circle venn-set-1" data-venn-sets="Markdown"><path d="M 430.0078257473832 245.72891662007623 &#10;m -165.27108337992374 0 &#10;a 165.27108337992374 165.27108337992374 0 1 0 330.5421667598475 0 &#10;a 165.27108337992374 165.27108337992374 0 1 0 -330.5421667598475 0" style="fill-opacity: 0.7; fill: rgb(219, 255, 204); stroke: rgb(69, 132, 42); stroke-width: 2.5; stroke-opacity: 0.95;"/><text class="label" text-anchor="middle" dy=".35em" x="565" y="246" style="fill: rgb(51, 62, 72); font-size: 24px;"><tspan x="565" y="246" dy="0.35em">MD</tspan></text></g><g class="venn-area venn-circle venn-set-2" data-venn-sets="Styled"><path d="M 400.0007450470339 168.01129090431868 &#10;m -153.01129090431868 0 &#10;a 153.01129090431868 153.01129090431868 0 1 0 306.02258180863737 0 &#10;a 153.01129090431868 153.01129090431868 0 1 0 -306.02258180863737 0" style="fill-opacity: 0.7; fill: rgb(255, 244, 204); stroke: rgb(153, 74, 0); stroke-width: 2.5; stroke-opacity: 0.95;"/><text class="label" text-anchor="middle" dy=".35em" x="399" y="48" style="fill: rgb(51, 62, 72); font-size: 24px;"><tspan x="399" y="48" dy="0.35em">Style</tspan></text></g><g class="venn-area venn-intersection" data-venn-sets="Markdown_Source"><path d="M 400 408.2529499058903 &#10;A 165.27108337992374 165.27108337992374 0 0 1 400 83.20488333426218 &#10;A 165.27108337992374 165.27108337992374 0 0 1 400 408.2529499058903" style="fill-opacity: 0; fill: transparent;"/><text class="label" text-anchor="middle" dy=".35em" x="399" y="364" style="fill: rgb(51, 62, 72); font-size: 24px;"><tspan x="399" y="364" dy="0.35em">Pair</tspan></text></g><g class="venn-area venn-intersection" data-venn-sets="Source_Styled"><path d="M 251.70926605746496 130.30065045242128 &#10;A 165.27108337992374 165.27108337992374 0 0 1 535.1549136523145 239.74556341628778 &#10;A 153.01129090431868 153.01129090431868 0 0 1 251.70926605746496 130.30065045242128" style="fill-opacity: 0; fill: transparent;"/><text class="label" text-anchor="middle" dy=".35em" x="272" y="142" style="fill: rgb(51, 62, 72); font-size: 24px;"><tspan x="272" y="142" dy="0.35em">Theme</tspan></text></g><g class="venn-area venn-intersection" data-venn-sets="Markdown_Styled"><path d="M 264.84518157750153 239.74293529812343 &#10;A 165.27108337992374 165.27108337992374 0 0 1 548.2927491812696 130.3027155658384 &#10;A 153.01129090431868 153.01129090431868 0 0 1 264.84518157750153 239.74293529812343" style="fill-opacity: 0; fill: transparent;"/><text class="label" text-anchor="middle" dy=".35em" x="527" y="142" style="fill: rgb(51, 62, 72); font-size: 24px;"><tspan x="527" y="142" dy="0.35em">Render</tspan></text></g><g class="venn-area venn-intersection" data-venn-sets="Markdown_Source_Styled"><path d="M 400 83.20488333426218 &#10;A 165.27108337992374 165.27108337992374 0 0 1 535.1549136523145 239.74556341628778 &#10;A 153.01129090431868 153.01129090431868 0 0 1 264.84518157750153 239.74293529812343 &#10;A 165.27108337992374 165.27108337992374 0 0 1 400 83.20488333426218" style="fill-opacity: 0; fill: transparent;"/><text class="label" text-anchor="middle" dy=".35em" x="400" y="205" style="fill: rgb(51, 62, 72); font-size: 24px;"><tspan x="400" y="205" dy="0.35em">All</tspan></text></g></g></svg>
