<?xml version='1.0' encoding='utf-8'?>
<svg xmlns="http://www.w3.org/2000/svg" id="my-svg" width="100%" style="max-width: 552.5px; background-color: white;" viewBox="0 0 552.5 441" role="graphics-document document" aria-roledescription="zenuml" data-animated-mermaid="true" data-animation="directives" data-element-count="5" data-animation-directives="true" data-directive-total-ms="2400"><defs>
  <style>
  .frame-border-outer { fill: #666; }
  .frame-border-inner { fill: #ffffff; }
  .frame-header-bg { fill: #ffffff; }
  .frame-header-line { stroke: #666; stroke-width: 1; shape-rendering: crispEdges; }
  .frame-title { font-family: Helvetica, Verdana, serif; font-size: 16px; font-weight: 600; fill: #222; }
  .participant-box { fill: #ffffff; stroke: #666; stroke-width: 2; }
  .participant-label { font-family: Helvetica, Verdana, serif; font-size: 16px; fill: #222; }
  .participant-icon { color: #222; }
  .participant-icon [fill="currentColor"]:not([stroke]) { stroke: #666; stroke-width: 1; }
  .lifeline { stroke: #666; stroke-width: 1; }
  .message-line { stroke: #000; stroke-width: 2; shape-rendering: crispEdges; }
  .message-label { font-family: Helvetica, Verdana, serif; font-size: 14px; fill: #222; }
  .arrow-head { fill: #000; stroke: #000; stroke-width: 2; }
  .arrow-open { fill: none; }
  .occurrence { fill: #dedede; stroke: #666; stroke-width: 2; shape-rendering: crispEdges; }
  .fragment-border { fill: none; stroke: #666; stroke-width: 1; shape-rendering: crispEdges; }
  .fragment-header { fill: #dedede; fill-opacity: 0.498; stroke: none; shape-rendering: crispEdges; }
  .fragment-label { font-family: Helvetica, Verdana, serif; font-size: 14px; font-weight: 600; fill: #000; }
  .fragment-condition { font-family: Helvetica, Verdana, serif; font-size: 14px; fill: #000; }
  .fragment-separator { stroke: #e5e7eb; stroke-width: 1; shape-rendering: crispEdges; }
  .fragment-section-label { font-family: Helvetica, Verdana, serif; font-size: 14px; fill: #000; }
  .return-line { stroke: #000; stroke-width: 2; stroke-dasharray: 6,4; shape-rendering: crispEdges; }
  .return-arrow { stroke: #000; stroke-width: 2; fill: none; }
  .return-label { font-family: Helvetica, Verdana, serif; font-size: 14px; fill: #222; }
  .return-icon { fill: #222; }
  .divider-line { stroke: #aaaa33; stroke-width: 1; }
  .divider-bg { fill: #fff5ad; stroke: #aaaa33; stroke-width: 1; }
  .divider-label { font-family: Helvetica, Verdana, serif; font-size: 14px; fill: #333; }
  .comment-text { font-family: Helvetica, Verdana, serif; font-size: 14px; fill: #333; opacity: 0.5; }
  .seq-number { font-family: Helvetica, Verdana, serif; font-size: 12px; font-weight: 100; fill: #6b7280; }
  .group-outline { fill: none; stroke: #666; }
  .group-title-bg { fill: #ffffff; stroke: none; }
  .group-title-text { font-family: Helvetica, Verdana, serif; font-size: 13px; font-weight: 400; fill: #222; }
</style>
</defs>
<style id="animated-mermaid-style" type="text/css">
.am-step {
  animation-delay: var(--am-delay, 0ms);
  animation-duration: var(--am-duration, 650ms);
  animation-fill-mode: backwards;
  animation-timing-function: var(--am-easing, cubic-bezier(.2, .8, .2, 1));
  transform-box: fill-box;
  transform-origin: center;
}
.am-effect-fade { animation-name: am-fade; }
.am-effect-pop { animation-name: am-pop; }
.am-effect-slide-up { animation-name: am-slide-up; }
.am-effect-slide-left { animation-name: am-slide-left; }
.am-effect-zoom { animation-name: am-zoom; }
.am-effect-draw { animation-name: am-draw; }
.am-effect-radial-arrow,
.am-effect-grow-arrow {
  animation-name: am-grow-arrow;
  animation-timing-function: cubic-bezier(.16, .84, .28, 1);
  stroke-linecap: round;
  stroke-linejoin: round;
}
.am-effect-radial-arrow { animation-name: am-radial-arrow; }
@keyframes am-fade {
  from { opacity: 0; }
  to { opacity: 1; }
}
@keyframes am-pop {
  0% { opacity: 0; transform: scale(.92); }
  70% { opacity: 1; transform: scale(1.025); }
  100% { opacity: 1; transform: none; }
}
@keyframes am-slide-up {
  from { opacity: 0; transform: translateY(14px); }
  to { opacity: 1; transform: none; }
}
@keyframes am-slide-left {
  from { opacity: 0; transform: translateX(18px); }
  to { opacity: 1; transform: none; }
}
@keyframes am-zoom {
  from { opacity: 0; transform: scale(.86); }
  to { opacity: 1; transform: none; }
}
@keyframes am-draw {
  from {
    opacity: 0;
    stroke-dasharray: var(--am-draw-distance, 10000);
    stroke-dashoffset: var(--am-draw-distance, 10000);
  }
  12% { opacity: 1; }
  to {
    opacity: 1;
    stroke-dasharray: var(--am-draw-distance, 10000);
    stroke-dashoffset: 0;
  }
}
@keyframes am-grow-arrow {
  0% {
    opacity: 0;
    marker-start: none;
    marker-mid: none;
    marker-end: none;
    stroke-dasharray: var(--am-draw-distance, 10000);
    stroke-dashoffset: var(--am-draw-distance, 10000);
  }
  8% {
    opacity: 1;
    marker-start: var(--am-marker-start, none);
    marker-mid: var(--am-marker-mid, none);
    marker-end: var(--am-marker-end, none);
  }
  34% {
    marker-start: var(--am-marker-start, none);
    marker-mid: var(--am-marker-mid, none);
    marker-end: var(--am-marker-end, none);
    stroke-dasharray: var(--am-draw-distance, 10000);
    stroke-dashoffset: var(--am-grow-distance-a, 6600);
  }
  62% {
    marker-start: var(--am-marker-start, none);
    marker-mid: var(--am-marker-mid, none);
    marker-end: var(--am-marker-end, none);
    stroke-dashoffset: var(--am-grow-distance-b, 2400);
  }
  84% {
    marker-start: var(--am-marker-start, none);
    marker-mid: var(--am-marker-mid, none);
    marker-end: var(--am-marker-end, none);
    stroke-dashoffset: var(--am-grow-distance-c, 360);
  }
  100% {
    opacity: 1;
    marker-start: var(--am-marker-start, none);
    marker-mid: var(--am-marker-mid, none);
    marker-end: var(--am-marker-end, none);
    stroke-dasharray: var(--am-draw-distance, 10000);
    stroke-dashoffset: 0;
  }
}
@keyframes am-radial-arrow {
  0% {
    opacity: 0;
    marker-start: none;
    marker-mid: none;
    marker-end: none;
    stroke-dasharray: 1;
    stroke-dashoffset: 1;
  }
  10% {
    opacity: 1;
    marker-start: var(--am-marker-start, none);
    marker-mid: var(--am-marker-mid, none);
    marker-end: var(--am-marker-end, none);
  }
  38% {
    marker-start: var(--am-marker-start, none);
    marker-mid: var(--am-marker-mid, none);
    marker-end: var(--am-marker-end, none);
    stroke-dasharray: 1;
    stroke-dashoffset: .66;
  }
  66% {
    marker-start: var(--am-marker-start, none);
    marker-mid: var(--am-marker-mid, none);
    marker-end: var(--am-marker-end, none);
    stroke-dashoffset: .24;
  }
  86% {
    marker-start: var(--am-marker-start, none);
    marker-mid: var(--am-marker-mid, none);
    marker-end: var(--am-marker-end, none);
    stroke-dashoffset: .05;
  }
  100% {
    opacity: 1;
    marker-start: var(--am-marker-start, none);
    marker-mid: var(--am-marker-mid, none);
    marker-end: var(--am-marker-end, none);
    stroke-dasharray: 1;
    stroke-dashoffset: 0;
  }
}
@media (prefers-reduced-motion: reduce) {
  .am-step {
    animation: none !important;
    opacity: initial !important;
    transform: none !important;
    stroke-dasharray: initial !important;
    stroke-dashoffset: initial !important;
  }
}
</style><rect class="frame-border-outer am-step am-role-item am-effect-fade" x="0" y="0" width="552.5" height="441" rx="4" fill="#666" style="--am-delay: 0.000ms; --am-duration: 240.000ms; --am-easing: cubic-bezier(.2, .8, .2, 1); --am-draw-distance: 10000.0;" />
<rect class="frame-border-inner am-step am-role-item am-effect-fade" x="1" y="1" width="550.5" height="439" rx="3" fill="#fff" style="--am-delay: 120.000ms; --am-duration: 240.000ms; --am-easing: cubic-bezier(.2, .8, .2, 1); --am-draw-distance: 10000.0;" />
<line class="frame-header-line am-step am-role-item am-effect-fade" x1="1" y1="33.5" x2="551.5" y2="33.5" style="--am-delay: 240.000ms; --am-duration: 240.000ms; --am-easing: cubic-bezier(.2, .8, .2, 1); --am-draw-distance: 10000.0;" />
<text x="5" y="16.75" dominant-baseline="central" class="frame-title am-step am-role-item am-effect-fade" style="--am-delay: 360.000ms; --am-duration: 240.000ms; --am-easing: cubic-bezier(.2, .8, .2, 1); --am-draw-distance: 10000.0;">Frontmatter render check</text>
<g transform="translate(21, 34)" class="am-step am-role-item am-effect-fade" style="--am-delay: 480.000ms; --am-duration: 240.000ms; --am-easing: cubic-bezier(.2, .8, .2, 1); --am-draw-distance: 10000.0;">
<line x1="54" y1="68" x2="54" y2="406" class="lifeline" stroke-dasharray="5,5" stroke-dashoffset="5" shape-rendering="crispEdges" />
<line x1="259" y1="68" x2="259" y2="406" class="lifeline" stroke-dasharray="5,5" stroke-dashoffset="5" shape-rendering="crispEdges" />
<line x1="461" y1="68" x2="461" y2="406" class="lifeline" stroke-dasharray="5,5" stroke-dashoffset="5" shape-rendering="crispEdges" />
<g class="participant" data-participant="Author">
  <rect x="8.9296875" y="29" width="89.140625" height="38" rx="3" class="participant-box" />
  <g class="participant-icon" transform="translate(11.9296875, 36) scale(1)" fill="none">
    <g>
    <path d="M15.5489 4.19771C15.5489 5.18773 15.1485 6.13721 14.4358 6.83726C13.7231 7.53731 12.7565 7.93058 11.7486 7.93058C10.7407 7.93058 9.77403 7.53731 9.06133 6.83726C8.34863 6.13721 7.94824 5.18773 7.94824 4.19771C7.94824 3.20768 8.34863 2.25822 9.06133 1.55818C9.77403 0.858126 10.7407 0.464844 11.7486 0.464844C12.7565 0.464844 13.7231 0.858126 14.4358 1.55818C15.1485 2.25822 15.5489 3.20768 15.5489 4.19771Z" stroke="currentColor" />
    <path d="M6.54883 11.2152L17.2025 11.2073M11.7471 8.06641V19.5806V8.06641ZM11.7471 19.4385L6.79789 23.5738L11.7471 19.4385ZM11.7551 19.4385L17.1864 23.3055L11.7551 19.4385Z" stroke="currentColor" />
  </g>
  </g>


  <text x="43.9296875" y="47.75" text-anchor="start" dominant-baseline="central" class="participant-label">Author</text>
</g>
<g class="participant" data-participant="Docs">
  <rect x="219.2734375" y="29" width="78.453125" height="38" rx="3" class="participant-box" />
  <g class="participant-icon" transform="translate(222.2734375, 38.75) scale(0.2376237623762376)" fill="none">
    <path d="M96.3563 39.4479C96.3563 48.4904 92.6755 57.1625 86.1237 63.5566C79.5718 69.9506 70.6856 73.5427 61.4199 73.5427C52.1541 73.5427 43.2679 69.9506 36.7161 63.5566C30.1642 57.1625 26.4834 48.4904 26.4834 39.4479C26.4834 30.147 30.1642 21.2271 36.7161 14.6504C43.2679 8.07366 52.1541 4.37891 61.4199 4.37891C70.6856 4.37891 79.5718 8.07366 86.1237 14.6504C92.6755 21.2271 96.3563 30.147 96.3563 39.4479V39.4479Z" stroke="currentColor" stroke-width="4" />
	<path d="M27.3611 39.4482H3.93945" stroke="currentColor" stroke-width="4" />
	<path d="M4.91504 4.37891V74.5168" stroke="currentColor" stroke-width="4" />
  </g>


  <text x="254.2734375" y="47.75" text-anchor="start" dominant-baseline="central" class="participant-label">Docs</text>
</g>
<g class="participant" data-participant="Repo">
  <rect x="420.375" y="29" width="80.25" height="38" rx="3" class="participant-box" />
  <g class="participant-icon" transform="translate(423.375, 36) scale(1)" fill="none">
    <path fill-rule="evenodd" clip-rule="evenodd" d="M12.258 0.001L12.514 0.005L12.769 0.01L13.022 0.018L13.273 0.028L13.522 0.04L13.769 0.055L14.015 0.071L14.257 0.09L14.498 0.11L14.737 0.133L14.973 0.157L15.206 0.184L15.437 0.212L15.666 0.243L15.891 0.275L16.114 0.309L16.334 0.345L16.551 0.383L16.765 0.423L16.976 0.464L17.184 0.507L17.389 0.552L17.59 0.598L17.788 0.646L17.982 0.696L18.173 0.747L18.36 0.8L18.543 0.854L18.723 0.91L18.898 0.967L19.07 1.026L19.238 1.086L19.401 1.147L19.561 1.21L19.716 1.274L19.866 1.34L19.94 1.373L20.013 1.406L20.084 1.44L20.154 1.474L20.223 1.509L20.291 1.544L20.358 1.579L20.424 1.614L20.488 1.65L20.552 1.686L20.614 1.722L20.674 1.758L20.734 1.795L20.792 1.832L20.85 1.869L20.905 1.907L20.96 1.945L21.013 1.983L21.065 2.021L21.116 2.06L21.166 2.099L21.214 2.138L21.261 2.177L21.306 2.217L21.35 2.257L21.393 2.297L21.434 2.337L21.474 2.378L21.513 2.419L21.55 2.46L21.586 2.501L21.62 2.542L21.653 2.584L21.685 2.626L21.715 2.668L21.744 2.71L21.771 2.752L21.797 2.795L21.821 2.838L21.844 2.881L21.865 2.924L21.885 2.967L21.903 3.011L21.92 3.054L21.935 3.098L21.948 3.142L21.96 3.186L21.971 3.231L21.98 3.275L21.987 3.32L21.993 3.365L21.997 3.41L21.999 3.455L22 3.5V20.5L21.999 20.545L21.997 20.59L21.993 20.635L21.987 20.68L21.98 20.725L21.971 20.769L21.96 20.814L21.948 20.858L21.935 20.902L21.92 20.946L21.903 20.989L21.885 21.033L21.865 21.076L21.844 21.119L21.821 21.162L21.797 21.205L21.771 21.248L21.744 21.29L21.715 21.332L21.685 21.374L21.653 21.416L21.62 21.458L21.586 21.499L21.55 21.54L21.513 21.581L21.474 21.622L21.434 21.663L21.393 21.703L21.35 21.743L21.306 21.783L21.261 21.823L21.214 21.862L21.166 21.901L21.116 21.94L21.065 21.979L21.013 22.017L20.96 22.055L20.905 22.093L20.85 22.131L20.792 22.168L20.734 22.205L20.674 22.242L20.614 22.278L20.552 22.314L20.488 22.35L20.424 22.386L20.358 22.421L20.291 22.456L20.223 22.491L20.154 22.526L20.084 22.56L20.013 22.594L19.94 22.627L19.866 22.66L19.716 22.726L19.561 22.79L19.401 22.853L19.238 22.914L19.07 22.974L18.898 23.033L18.723 23.09L18.543 23.146L18.36 23.2L18.173 23.253L17.982 23.304L17.788 23.354L17.59 23.402L17.389 23.448L17.184 23.493L16.976 23.536L16.765 23.577L16.551 23.617L16.334 23.655L16.114 23.691L15.891 23.725L15.666 23.757L15.437 23.788L15.206 23.816L14.973 23.843L14.737 23.867L14.498 23.89L14.257 23.91L14.015 23.929L13.769 23.945L13.522 23.96L13.273 23.972L13.022 23.982L12.769 23.99L12.514 23.995L12.258 23.999L12 24L11.742 23.999L11.486 23.995L11.231 23.99L10.978 23.982L10.727 23.972L10.478 23.96L10.231 23.945L9.986 23.929L9.743 23.91L9.502 23.89L9.264 23.867L9.028 23.843L8.794 23.816L8.563 23.788L8.335 23.757L8.109 23.725L7.886 23.691L7.666 23.655L7.449 23.617L7.235 23.577L7.024 23.536L6.816 23.493L6.612 23.448L6.411 23.402L6.213 23.354L6.018 23.304L5.828 23.253L5.641 23.2L5.457 23.146L5.278 23.09L5.102 23.033L4.93 22.974L4.763 22.914L4.599 22.853L4.44 22.79L4.285 22.726L4.134 22.66L4.06 22.627L3.988 22.594L3.916 22.56L3.846 22.526L3.777 22.491L3.709 22.456L3.642 22.421L3.576 22.386L3.512 22.35L3.449 22.314L3.387 22.278L3.326 22.242L3.266 22.205L3.208 22.168L3.151 22.131L3.095 22.093L3.04 22.055L2.987 22.017L2.935 21.979L2.884 21.94L2.835 21.901L2.786 21.862L2.74 21.823L2.694 21.783L2.65 21.743L2.607 21.703L2.566 21.663L2.526 21.622L2.487 21.581L2.45 21.54L2.414 21.499L2.38 21.458L2.347 21.416L2.315 21.374L2.285 21.332L2.256 21.29L2.229 21.248L2.203 21.205L2.179 21.162L2.156 21.119L2.135 21.076L2.115 21.033L2.097 20.989L2.08 20.946L2.065 20.902L2.052 20.858L2.04 20.814L2.029 20.769L2.02 20.725L2.013 20.68L2.007 20.635L2.003 20.59L2.001 20.545L2 20.5V3.5L2.001 3.455L2.003 3.41L2.007 3.365L2.013 3.32L2.02 3.275L2.029 3.231L2.04 3.186L2.052 3.142L2.065 3.098L2.08 3.054L2.097 3.011L2.115 2.967L2.135 2.924L2.156 2.881L2.179 2.838L2.203 2.795L2.229 2.752L2.256 2.71L2.285 2.668L2.315 2.626L2.347 2.584L2.38 2.542L2.414 2.501L2.45 2.46L2.487 2.419L2.526 2.378L2.566 2.337L2.607 2.297L2.65 2.257L2.694 2.217L2.74 2.177L2.786 2.138L2.835 2.099L2.884 2.06L2.935 2.021L2.987 1.983L3.04 1.945L3.095 1.907L3.151 1.869L3.208 1.832L3.266 1.795L3.326 1.758L3.387 1.722L3.449 1.686L3.512 1.65L3.576 1.614L3.642 1.579L3.709 1.544L3.777 1.509L3.846 1.474L3.916 1.44L3.988 1.406L4.06 1.373L4.134 1.34L4.285 1.274L4.44 1.21L4.599 1.147L4.763 1.086L4.93 1.026L5.102 0.967L5.278 0.91L5.457 0.854L5.641 0.8L5.828 0.747L6.018 0.696L6.213 0.646L6.411 0.598L6.612 0.552L6.816 0.507L7.024 0.464L7.235 0.423L7.449 0.383L7.666 0.345L7.886 0.309L8.109 0.275L8.335 0.243L8.563 0.212L8.794 0.184L9.028 0.157L9.264 0.133L9.502 0.11L9.743 0.09L9.986 0.071L10.231 0.055L10.478 0.04L10.727 0.028L10.978 0.018L11.231 0.01L11.486 0.005L11.742 0.001L12 0L12.258 0.001V0.001ZM3 20.5V20.51L3.001 20.531L3.004 20.552L3.008 20.574L3.013 20.595L3.019 20.617L3.026 20.639L3.035 20.662L3.045 20.684L3.056 20.707L3.068 20.73L3.081 20.753L3.096 20.776L3.112 20.8L3.129 20.823L3.147 20.847L3.166 20.871L3.187 20.895L3.209 20.92L3.232 20.944L3.256 20.969L3.308 21.018L3.364 21.068L3.425 21.119L3.491 21.17L3.561 21.221L3.636 21.272L3.715 21.324L3.799 21.376L3.887 21.428L3.979 21.48L4.076 21.532L4.178 21.583L4.283 21.635L4.393 21.687L4.507 21.738L4.626 21.789L4.749 21.84L4.876 21.89L5.007 21.94L5.142 21.99L5.281 22.038L5.425 22.087L5.572 22.134L5.724 22.181L5.879 22.228L6.039 22.273L6.202 22.318L6.369 22.361L6.54 22.404L6.716 22.445L6.894 22.486L7.077 22.525L7.264 22.564L7.454 22.601L7.648 22.636L7.845 22.671L8.047 22.704L8.251 22.735L8.46 22.765L8.672 22.794L8.888 22.821L9.107 22.846L9.329 22.87L9.555 22.891L9.785 22.911L10.018 22.929L10.254 22.945L10.494 22.96L10.737 22.972L10.983 22.982L11.232 22.99L11.485 22.995L11.741 22.999L12 23L12.26 22.999L12.517 22.995L12.771 22.99L13.021 22.982L13.268 22.971L13.512 22.959L13.753 22.945L13.99 22.929L14.223 22.911L14.454 22.89L14.68 22.869L14.904 22.845L15.124 22.819L15.34 22.792L15.552 22.764L15.762 22.733L15.967 22.702L16.169 22.668L16.367 22.634L16.561 22.598L16.752 22.561L16.939 22.522L17.122 22.482L17.301 22.442L17.476 22.4L17.648 22.357L17.816 22.313L17.979 22.268L18.139 22.222L18.294 22.176L18.446 22.129L18.594 22.081L18.737 22.032L18.876 21.983L19.012 21.933L19.143 21.883L19.269 21.833L19.392 21.782L19.51 21.73L19.624 21.679L19.734 21.627L19.84 21.575L19.941 21.523L20.037 21.471L20.129 21.419L20.217 21.366L20.3 21.315L20.379 21.263L20.453 21.211L20.523 21.16L20.588 21.109L20.648 21.058L20.704 21.008L20.755 20.958L20.778 20.934L20.801 20.909L20.822 20.885L20.842 20.861L20.861 20.837L20.879 20.813L20.896 20.789L20.911 20.766L20.925 20.742L20.938 20.719L20.95 20.696L20.96 20.673L20.97 20.651L20.978 20.629L20.984 20.607L20.99 20.585L20.994 20.563L20.998 20.542L20.999 20.521L21 20.5V16.373L20.923 16.428L20.843 16.481L20.76 16.535L20.675 16.588L20.588 16.64L20.498 16.692L20.405 16.743L20.31 16.793L20.213 16.843L20.113 16.892L20.011 16.941L19.906 16.989L19.8 17.036L19.691 17.083L19.58 17.129L19.466 17.174L19.351 17.219L19.233 17.263L19.113 17.306L18.991 17.348L18.867 17.39L18.741 17.431L18.613 17.471L18.483 17.511L18.351 17.549L18.217 17.587L18.082 17.624L17.944 17.661L17.805 17.696L17.663 17.731L17.52 17.765L17.376 17.798L17.229 17.83L17.081 17.861L16.931 17.891L16.78 17.921L16.627 17.95L16.473 17.977L16.317 18.004L16.159 18.03L16 18.055L15.839 18.079L15.677 18.102L15.514 18.124L15.349 18.145L15.183 18.165L15.016 18.184L14.847 18.202L14.678 18.219L14.507 18.235L14.334 18.25L14.161 18.264L13.986 18.277L13.811 18.289L13.634 18.3L13.456 18.31L13.277 18.318L13.098 18.326L12.917 18.332L12.735 18.337L12.553 18.341L12.369 18.344L12.185 18.346H11.815L11.631 18.344L11.447 18.341L11.265 18.337L11.083 18.332L10.902 18.326L10.723 18.318L10.544 18.31L10.366 18.3L10.19 18.289L10.014 18.277L9.839 18.264L9.666 18.25L9.494 18.235L9.323 18.219L9.153 18.202L8.984 18.184L8.817 18.165L8.651 18.145L8.486 18.124L8.323 18.102L8.161 18.079L8 18.055L7.841 18.03L7.684 18.004L7.528 17.977L7.373 17.95L7.22 17.921L7.069 17.891L6.919 17.861L6.771 17.83L6.625 17.798L6.48 17.765L6.337 17.731L6.196 17.696L6.056 17.661L5.919 17.624L5.783 17.587L5.649 17.549L5.517 17.511L5.387 17.471L5.259 17.431L5.133 17.39L5.009 17.348L4.887 17.306L4.767 17.262L4.65 17.219L4.534 17.174L4.421 17.129L4.309 17.083L4.2 17.036L4.094 16.989L3.989 16.941L3.887 16.892L3.787 16.843L3.69 16.793L3.595 16.743L3.502 16.691L3.412 16.64L3.325 16.588L3.24 16.535L3.157 16.481L3.077 16.427L3 16.373V20.5V20.5ZM3 14.846V14.857L3.001 14.878L3.004 14.899L3.008 14.92L3.013 14.942L3.019 14.964L3.026 14.986L3.035 15.008L3.045 15.03L3.056 15.053L3.068 15.076L3.081 15.099L3.096 15.123L3.112 15.146L3.129 15.17L3.147 15.194L3.166 15.218L3.187 15.242L3.209 15.266L3.232 15.291L3.256 15.315L3.308 15.365L3.364 15.415L3.425 15.465L3.491 15.516L3.561 15.567L3.636 15.619L3.715 15.67L3.799 15.722L3.887 15.774L3.979 15.826L4.076 15.878L4.178 15.93L4.283 15.982L4.393 16.033L4.507 16.084L4.626 16.136L4.749 16.186L4.876 16.237L5.007 16.287L5.142 16.336L5.281 16.385L5.425 16.433L5.572 16.481L5.724 16.528L5.879 16.574L6.039 16.619L6.202 16.664L6.369 16.708L6.54 16.75L6.716 16.792L6.894 16.832L7.077 16.872L7.264 16.91L7.454 16.947L7.648 16.983L7.845 17.017L8.047 17.05L8.251 17.082L8.46 17.112L8.672 17.14L8.888 17.167L9.107 17.192L9.329 17.216L9.555 17.238L9.785 17.258L10.018 17.276L10.254 17.292L10.494 17.306L10.737 17.318L10.983 17.328L11.232 17.336L11.485 17.342L11.741 17.345L12 17.346L12.26 17.345L12.517 17.342L12.771 17.336L13.021 17.328L13.268 17.318L13.512 17.306L13.753 17.291L13.99 17.275L14.223 17.257L14.454 17.237L14.68 17.215L14.904 17.191L15.124 17.166L15.34 17.139L15.552 17.11L15.762 17.08L15.967 17.048L16.169 17.015L16.367 16.98L16.561 16.944L16.752 16.907L16.939 16.868L17.122 16.829L17.301 16.788L17.476 16.746L17.648 16.703L17.816 16.659L17.979 16.614L18.139 16.569L18.294 16.522L18.446 16.475L18.594 16.427L18.737 16.379L18.876 16.329L19.012 16.28L19.143 16.23L19.269 16.179L19.392 16.128L19.51 16.077L19.624 16.025L19.734 15.973L19.84 15.921L19.941 15.869L20.037 15.817L20.129 15.765L20.217 15.713L20.3 15.661L20.379 15.609L20.453 15.558L20.523 15.506L20.588 15.455L20.648 15.405L20.704 15.354L20.755 15.305L20.778 15.28L20.801 15.256L20.822 15.231L20.842 15.207L20.861 15.183L20.879 15.159L20.896 15.135L20.911 15.112L20.925 15.089L20.938 15.065L20.95 15.043L20.96 15.02L20.97 14.997L20.978 14.975L20.984 14.953L20.99 14.931L20.994 14.91L20.998 14.888L20.999 14.867L21 14.846V10.707L20.923 10.761L20.843 10.815L20.76 10.869L20.675 10.921L20.588 10.974L20.498 11.025L20.405 11.076L20.31 11.127L20.213 11.177L20.113 11.226L20.011 11.275L19.906 11.323L19.8 11.37L19.691 11.417L19.58 11.463L19.466 11.508L19.351 11.552L19.233 11.596L19.113 11.64L18.991 11.682L18.867 11.724L18.741 11.765L18.613 11.805L18.483 11.844L18.351 11.883L18.217 11.921L18.082 11.958L17.944 11.994L17.805 12.03L17.663 12.065L17.52 12.098L17.376 12.131L17.229 12.164L17.081 12.195L16.931 12.225L16.78 12.255L16.627 12.283L16.473 12.311L16.317 12.338L16.159 12.364L16 12.389L15.839 12.413L15.677 12.436L15.514 12.458L15.349 12.479L15.183 12.499L15.016 12.518L14.847 12.536L14.678 12.553L14.507 12.569L14.334 12.584L14.161 12.598L13.986 12.611L13.811 12.623L13.634 12.634L13.456 12.643L13.277 12.652L13.098 12.659L12.917 12.666L12.735 12.671L12.553 12.675L12.369 12.678L12.185 12.68H11.815L11.631 12.678L11.447 12.675L11.265 12.671L11.083 12.666L10.902 12.659L10.723 12.652L10.544 12.643L10.366 12.634L10.19 12.623L10.014 12.611L9.839 12.598L9.666 12.584L9.494 12.569L9.323 12.553L9.153 12.536L8.984 12.518L8.817 12.499L8.651 12.479L8.486 12.458L8.323 12.436L8.161 12.413L8 12.389L7.841 12.364L7.684 12.338L7.528 12.311L7.373 12.283L7.22 12.255L7.069 12.225L6.919 12.195L6.771 12.164L6.625 12.131L6.48 12.098L6.337 12.065L6.196 12.03L6.056 11.994L5.919 11.958L5.783 11.921L5.649 11.883L5.517 11.844L5.387 11.805L5.259 11.765L5.133 11.724L5.009 11.682L4.887 11.639L4.767 11.596L4.65 11.552L4.534 11.508L4.421 11.462L4.309 11.416L4.2 11.37L4.094 11.323L3.989 11.275L3.887 11.226L3.787 11.177L3.69 11.127L3.595 11.076L3.502 11.025L3.412 10.974L3.325 10.921L3.24 10.869L3.157 10.815L3.077 10.761L3 10.707V14.846V14.846ZM3 9.18V9.191L3.001 9.211L3.004 9.233L3.008 9.254L3.013 9.276L3.019 9.297L3.026 9.319L3.035 9.342L3.045 9.364L3.056 9.387L3.068 9.41L3.081 9.433L3.096 9.456L3.112 9.48L3.129 9.504L3.147 9.527L3.166 9.551L3.187 9.576L3.209 9.6L3.232 9.624L3.256 9.649L3.308 9.699L3.364 9.749L3.425 9.799L3.491 9.85L3.561 9.901L3.636 9.953L3.715 10.004L3.799 10.056L3.887 10.108L3.979 10.16L4.076 10.212L4.178 10.264L4.283 10.315L4.393 10.367L4.507 10.418L4.626 10.469L4.749 10.52L4.876 10.57L5.007 10.62L5.142 10.67L5.281 10.719L5.425 10.767L5.572 10.815L5.724 10.862L5.879 10.908L6.039 10.953L6.202 10.998L6.369 11.041L6.54 11.084L6.716 11.126L6.894 11.166L7.077 11.206L7.264 11.244L7.454 11.281L7.648 11.317L7.845 11.351L8.047 11.384L8.251 11.416L8.46 11.446L8.672 11.474L8.888 11.501L9.107 11.526L9.329 11.55L9.555 11.571L9.785 11.591L10.018 11.609L10.254 11.626L10.494 11.64L10.737 11.652L10.983 11.662L11.232 11.67L11.485 11.676L11.741 11.679L12 11.68L12.26 11.679L12.517 11.676L12.771 11.67L13.021 11.662L13.268 11.652L13.512 11.639L13.753 11.625L13.99 11.609L14.223 11.591L14.454 11.571L14.68 11.549L14.904 11.525L15.124 11.5L15.34 11.473L15.552 11.444L15.762 11.414L15.967 11.382L16.169 11.349L16.367 11.314L16.561 11.278L16.752 11.241L16.939 11.202L17.122 11.163L17.301 11.122L17.476 11.08L17.648 11.037L17.816 10.993L17.979 10.948L18.139 10.903L18.294 10.856L18.446 10.809L18.594 10.761L18.737 10.712L18.876 10.663L19.012 10.614L19.143 10.563L19.269 10.513L19.392 10.462L19.51 10.41L19.624 10.359L19.734 10.307L19.84 10.255L19.941 10.203L20.037 10.151L20.129 10.099L20.217 10.047L20.3 9.995L20.379 9.943L20.453 9.891L20.523 9.84L20.588 9.789L20.648 9.738L20.704 9.688L20.755 9.639L20.778 9.614L20.801 9.589L20.822 9.565L20.842 9.541L20.861 9.517L20.879 9.493L20.896 9.469L20.911 9.446L20.925 9.422L20.938 9.399L20.95 9.376L20.96 9.354L20.97 9.331L20.978 9.309L20.984 9.287L20.99 9.265L20.994 9.243L20.998 9.222L20.999 9.201L21 9.18V5.027L20.923 5.081L20.843 5.135L20.76 5.188L20.675 5.241L20.588 5.294L20.498 5.345L20.405 5.396L20.31 5.447L20.213 5.497L20.113 5.546L20.011 5.594L19.906 5.642L19.8 5.69L19.691 5.736L19.58 5.782L19.466 5.828L19.351 5.872L19.233 5.916L19.113 5.959L18.991 6.002L18.867 6.044L18.741 6.085L18.613 6.125L18.483 6.164L18.351 6.203L18.217 6.241L18.082 6.278L17.944 6.314L17.805 6.35L17.663 6.384L17.52 6.418L17.376 6.451L17.229 6.483L17.081 6.515L16.931 6.545L16.78 6.575L16.627 6.603L16.473 6.631L16.317 6.658L16.159 6.684L16 6.708L15.839 6.732L15.677 6.755L15.514 6.778L15.349 6.799L15.183 6.819L15.016 6.838L14.847 6.856L14.678 6.873L14.507 6.889L14.334 6.904L14.161 6.918L13.986 6.931L13.811 6.943L13.634 6.953L13.456 6.963L13.277 6.972L13.098 6.979L12.917 6.985L12.735 6.991L12.553 6.995L12.369 6.998L12.185 6.999L12 7L11.815 6.999L11.631 6.998L11.447 6.995L11.265 6.991L11.083 6.985L10.902 6.979L10.723 6.972L10.544 6.963L10.366 6.953L10.19 6.943L10.014 6.931L9.839 6.918L9.666 6.904L9.494 6.889L9.323 6.873L9.153 6.856L8.984 6.838L8.817 6.819L8.651 6.799L8.486 6.778L8.323 6.755L8.161 6.732L8 6.708L7.841 6.684L7.684 6.658L7.528 6.631L7.373 6.603L7.22 6.575L7.069 6.545L6.919 6.515L6.771 6.483L6.625 6.451L6.48 6.418L6.337 6.384L6.196 6.35L6.056 6.314L5.919 6.278L5.783 6.241L5.649 6.203L5.517 6.164L5.387 6.125L5.259 6.084L5.133 6.043L5.009 6.002L4.887 5.959L4.767 5.916L4.65 5.872L4.534 5.828L4.421 5.782L4.309 5.736L4.2 5.69L4.094 5.642L3.989 5.594L3.887 5.546L3.787 5.496L3.69 5.447L3.595 5.396L3.502 5.345L3.412 5.293L3.325 5.241L3.24 5.188L3.157 5.135L3.077 5.081L3 5.027V9.18V9.18ZM11.74 1.001L11.483 1.005L11.229 1.01L10.979 1.018L10.732 1.029L10.488 1.041L10.247 1.055L10.01 1.071L9.777 1.089L9.546 1.11L9.32 1.132L9.096 1.155L8.876 1.181L8.66 1.208L8.448 1.236L8.238 1.267L8.033 1.299L7.831 1.332L7.633 1.366L7.439 1.402L7.248 1.44L7.061 1.478L6.878 1.518L6.699 1.559L6.524 1.601L6.352 1.644L6.184 1.687L6.021 1.732L5.861 1.778L5.706 1.824L5.554 1.872L5.406 1.92L5.263 1.968L5.124 2.017L4.988 2.067L4.857 2.117L4.731 2.168L4.608 2.219L4.49 2.27L4.376 2.322L4.266 2.374L4.16 2.426L4.059 2.478L3.963 2.53L3.871 2.582L3.783 2.634L3.7 2.686L3.621 2.738L3.547 2.789L3.477 2.841L3.412 2.892L3.352 2.942L3.296 2.992L3.245 3.042L3.222 3.067L3.199 3.091L3.178 3.115L3.158 3.14L3.139 3.164L3.121 3.188L3.104 3.211L3.089 3.235L3.075 3.258L3.062 3.281L3.05 3.304L3.04 3.327L3.03 3.349L3.022 3.371L3.016 3.394L3.01 3.415L3.006 3.437L3.002 3.458L3.001 3.479L3 3.5L3.001 3.521L3.002 3.542L3.006 3.563L3.01 3.585L3.016 3.606L3.022 3.629L3.03 3.651L3.04 3.673L3.05 3.696L3.062 3.719L3.075 3.742L3.089 3.765L3.104 3.789L3.121 3.812L3.139 3.836L3.158 3.86L3.178 3.885L3.199 3.909L3.222 3.933L3.245 3.958L3.296 4.008L3.352 4.058L3.412 4.108L3.477 4.159L3.547 4.211L3.621 4.262L3.7 4.314L3.783 4.366L3.871 4.418L3.963 4.47L4.059 4.522L4.16 4.574L4.266 4.626L4.376 4.678L4.49 4.73L4.608 4.781L4.731 4.832L4.857 4.883L4.988 4.933L5.124 4.983L5.263 5.032L5.406 5.08L5.554 5.128L5.706 5.176L5.861 5.222L6.021 5.268L6.184 5.313L6.352 5.356L6.524 5.399L6.699 5.441L6.878 5.482L7.061 5.522L7.248 5.56L7.439 5.598L7.633 5.634L7.831 5.668L8.033 5.701L8.238 5.733L8.448 5.764L8.66 5.792L8.876 5.819L9.096 5.845L9.32 5.868L9.546 5.89L9.777 5.911L10.01 5.929L10.247 5.945L10.488 5.959L10.732 5.971L10.979 5.982L11.229 5.99L11.483 5.995L11.74 5.999L12 6L12.26 5.999L12.517 5.995L12.771 5.99L13.021 5.982L13.268 5.971L13.512 5.959L13.753 5.945L13.99 5.929L14.223 5.911L14.454 5.89L14.68 5.868L14.904 5.845L15.124 5.819L15.34 5.792L15.552 5.764L15.762 5.733L15.967 5.701L16.169 5.668L16.367 5.634L16.561 5.598L16.752 5.56L16.939 5.522L17.122 5.482L17.301 5.441L17.476 5.399L17.648 5.356L17.816 5.313L17.979 5.268L18.139 5.222L18.294 5.176L18.446 5.128L18.594 5.08L18.737 5.032L18.876 4.983L19.012 4.933L19.143 4.883L19.269 4.832L19.392 4.781L19.51 4.73L19.624 4.678L19.734 4.626L19.84 4.574L19.941 4.522L20.037 4.47L20.129 4.418L20.217 4.366L20.3 4.314L20.379 4.262L20.453 4.211L20.523 4.159L20.588 4.108L20.648 4.058L20.704 4.008L20.755 3.958L20.778 3.933L20.801 3.909L20.822 3.885L20.842 3.86L20.861 3.836L20.879 3.812L20.896 3.789L20.911 3.765L20.925 3.742L20.938 3.719L20.95 3.696L20.96 3.673L20.97 3.651L20.978 3.629L20.984 3.606L20.99 3.585L20.994 3.563L20.998 3.542L20.999 3.521L21 3.5L20.999 3.479L20.998 3.458L20.994 3.437L20.99 3.415L20.984 3.394L20.978 3.371L20.97 3.349L20.96 3.327L20.95 3.304L20.938 3.281L20.925 3.258L20.911 3.235L20.896 3.211L20.879 3.188L20.861 3.164L20.842 3.14L20.822 3.115L20.801 3.091L20.778 3.067L20.755 3.042L20.704 2.992L20.648 2.942L20.588 2.892L20.523 2.841L20.453 2.789L20.379 2.738L20.3 2.686L20.217 2.634L20.129 2.582L20.037 2.53L19.941 2.478L19.84 2.426L19.734 2.374L19.624 2.322L19.51 2.27L19.392 2.219L19.269 2.168L19.143 2.117L19.012 2.067L18.876 2.017L18.737 1.968L18.594 1.92L18.446 1.872L18.294 1.824L18.139 1.778L17.979 1.732L17.816 1.687L17.648 1.644L17.476 1.601L17.301 1.559L17.122 1.518L16.939 1.478L16.752 1.44L16.561 1.402L16.367 1.366L16.169 1.332L15.967 1.299L15.762 1.267L15.552 1.236L15.34 1.208L15.124 1.181L14.904 1.155L14.68 1.132L14.454 1.11L14.223 1.089L13.99 1.071L13.753 1.055L13.512 1.041L13.268 1.029L13.021 1.018L12.771 1.01L12.517 1.005L12.26 1.001L12 1L11.74 1.001V1.001Z" fill="currentColor" />
  </g>


  <text x="455.375" y="47.75" text-anchor="start" dominant-baseline="central" class="participant-label">Repo</text>
</g>
<g class="message">
  <line x1="54.5" y1="87" x2="258.5" y2="87" class="message-line" />
  <svg x="251.5" y="82" width="7" height="10" viewBox="0 0 7 9" overflow="visible" class="arrow-head arrow-open">
    <g>
      <path d="M1 1.25 L6.15 4.5 L1 7.75" stroke="#000" stroke-linecap="round" stroke-width="2" fill="none" />
    </g>
  </svg>
  <text x="153" y="84" text-anchor="middle" class="message-label">Open Markdown wrapper</text>
  <text x="50.5" y="84" text-anchor="end" class="seq-number">1</text>
</g>
<g class="message">
  <line x1="259.5" y1="119" x2="460.5" y2="119" class="message-line" />
  <svg x="453.5" y="114" width="7" height="10" viewBox="0 0 7 9" overflow="visible" class="arrow-head arrow-open">
    <g>
      <path d="M1 1.25 L6.15 4.5 L1 7.75" stroke="#000" stroke-linecap="round" stroke-width="2" fill="none" />
    </g>
  </svg>
  <text x="356.5" y="116" text-anchor="middle" class="message-label">Load paired .mmd source</text>
  <text x="255.5" y="116" text-anchor="end" class="seq-number">2</text>
</g>
<g class="message">
  <line x1="460.5" y1="151" x2="259.5" y2="151" class="message-line" />
  <svg x="259.5" y="146" width="7" height="10" viewBox="0 0 7 9" overflow="visible" class="arrow-head arrow-open">
    <g transform="scale(-1, 1) translate(-7, 0)">
      <path d="M1 1.25 L6.15 4.5 L1 7.75" stroke="#000" stroke-linecap="round" stroke-width="2" fill="none" />
    </g>
  </svg>
  <text x="363.5" y="148" text-anchor="middle" class="message-label">Return diagram text</text>
  <text x="255.5" y="148" text-anchor="end" class="seq-number">3</text>
</g>
<g class="message">
  <line x1="258.5" y1="245" x2="54.5" y2="245" class="message-line" />
  <svg x="54.5" y="240" width="7" height="10" viewBox="0 0 7 9" overflow="visible" class="arrow-head arrow-open">
    <g transform="scale(-1, 1) translate(-7, 0)">
      <path d="M1 1.25 L6.15 4.5 L1 7.75" stroke="#000" stroke-linecap="round" stroke-width="2" fill="none" />
    </g>
  </svg>
  <text x="160" y="242" text-anchor="middle" class="message-label">Render colored shapes</text>
  <text x="50.5" y="242" text-anchor="end" class="seq-number">4.1</text>
</g>
<g class="message">
  <line x1="258.5" y1="322" x2="54.5" y2="322" class="message-line" />
  <svg x="54.5" y="317" width="7" height="10" viewBox="0 0 7 9" overflow="visible" class="arrow-head arrow-open">
    <g transform="scale(-1, 1) translate(-7, 0)">
      <path d="M1 1.25 L6.15 4.5 L1 7.75" stroke="#000" stroke-linecap="round" stroke-width="2" fill="none" />
    </g>
  </svg>
  <text x="160" y="319" text-anchor="middle" class="message-label">Show parser error</text>
  <text x="50.5" y="319" text-anchor="end" class="seq-number">4.2</text>
</g>
<g class="fragment fragment-alt">
  <rect x="-9.5" y="168.5" width="327.5" height="181" rx="4" class="fragment-border" />
  <rect x="-9" y="169" width="326.5" height="25" class="fragment-header" />
  <svg x="-5" y="169" width="20" height="24" viewBox="0 0 24 24" fill="none">
      <path d="M12 8L20 12L12 16L4 12L12 8Z" stroke="#000" stroke-width="1.5" stroke-linecap="round" stroke-linejoin="round" />
    </svg>
  <text x="17" y="181" dominant-baseline="central" class="fragment-label">Alt</text>
  <text x="-13" y="177" text-anchor="end" dominant-baseline="central" class="seq-number">4</text>
  <g><text x="-9" y="209" class="fragment-condition">[</text><text x="-1.1099999999999994" y="209" class="fragment-condition" opacity="0.65">valid frontmatter</text><text x="103.2620703125" y="209" class="fragment-condition">]</text></g>
  <line x1="-9" y1="270.5" x2="317.5" y2="270.5" class="fragment-separator" />
  <text x="-5" y="286" class="fragment-section-label">[else]</text>
</g>
</g><g id="am-directive-overlays" class="am-directive-overlays"><g id="am-mark-token" class="am-directive-mark am-directive-mark-dot am-directive-move-1 am-directive-move-2 am-directive-move-3 am-directive-mark-hide-4" transform="translate(54.000 87.000)" style="animation: am-directive-move-kf-1 500.000ms cubic-bezier(.2, .8, .2, 1) 720.000ms forwards, am-directive-move-kf-2 500.000ms cubic-bezier(.2, .8, .2, 1) 1220.000ms forwards, am-directive-move-kf-3 500.000ms cubic-bezier(.2, .8, .2, 1) 1720.000ms forwards, am-directive-mark-hide-kf-4 180.000ms cubic-bezier(.2, .8, .2, 1) 2220.000ms forwards; opacity: 0;"><circle cx="0" cy="0" r="4.000" fill="#1971c2" /></g></g><style id="animated-mermaid-directives-style" type="text/css">
.am-directive-overlays {
  pointer-events: none;
}
.am-directive-mark {
  transform-box: view-box;
  transform-origin: 0 0;
}
@media (prefers-reduced-motion: reduce) {
  [class*="am-directive-move-"],
  [class*="am-directive-color-"],
  [class*="am-directive-pulse-"],
  [class*="am-directive-hide-"] {
    animation-duration: 1ms !important;
    animation-delay: 0ms !important;
  }
}

.am-directive-move-1 {
  transform-box: view-box;
  transform-origin: 0 0;
}
@keyframes am-directive-move-kf-1 {
  0% { opacity: 0; transform: translate(54.000px, 87.000px); }
  8% { opacity: 1; transform: translate(54.000px, 87.000px); }
  100.000% { opacity: 1; transform: translate(259.000px, 87.000px); }
}

.am-directive-move-2 {
  transform-box: view-box;
  transform-origin: 0 0;
}
@keyframes am-directive-move-kf-2 {
  0.000% { opacity: 1; transform: translate(259.000px, 87.000px); }
  100.000% { opacity: 1; transform: translate(461.000px, 119.000px); }
}

.am-directive-move-3 {
  transform-box: view-box;
  transform-origin: 0 0;
}
@keyframes am-directive-move-kf-3 {
  0.000% { opacity: 1; transform: translate(461.000px, 119.000px); }
  100.000% { opacity: 1; transform: translate(259.000px, 151.000px); }
}

.am-directive-mark-hide-4 {
  animation-composition: replace;
}
@keyframes am-directive-mark-hide-kf-4 {
  to { opacity: 0; }
}
</style></svg>
